G70*
%FSLAX24Y24*%
%IPPOS*%
%LPD*%
%ADD10C,0.008*%
%ADD22R,0.04X0.04*%
%ADD36C,0.005*%
%ADD41C,0.065*%
%ADD53C,0.001*%
%ADD73C,0.015*%
%ADD82R,0.058X0.058*%
%ADD83C,0.058*%
%ADD86C,0.03*%
%ADD96C,0.068*%
%ADD97C,0.2*%
%ADD98C,0.09*%
%ADD99C,0.048*%
%ADD102R,0.07874X0.07874*%
%ADD103C,0.25*%
D10*
X009525Y003525D02*
X009525Y004525D01*
X009025Y005025D01*
X008525Y003525D02*
X007025Y005025D01*
X007025Y010175D01*
X006525Y010675D01*
X006525Y011775D01*
X006025Y012275D01*
X007525Y003525D02*
X007525Y004055D01*
X006025Y005555D01*
X006025Y011275D01*
X014275Y002925D02*
X014625Y002925D01*
X014975Y003275D01*
X015525Y003275D01*
X015525Y001275D02*
X015045Y001755D01*
X014695Y001755D01*
X014325Y002125D01*
X014275Y002125D01*
X003980Y010485D02*
X003525Y010485D01*
X003515Y010495D01*
X003980Y010485D02*
X004235Y010485D01*
X005025Y011275D01*
X003980Y010650D02*
X004525Y011195D01*
X004525Y011775D01*
X005025Y012275D01*
X003980Y010650D02*
X003965Y010665D01*
X003425Y010665D01*
X002525Y009525D02*
X003495Y010495D01*
X003515Y010495D01*
X001525Y009525D02*
X002155Y010155D01*
X002915Y010155D01*
X003425Y010665D01*
D22*
X014225Y007875D02*
X014325Y007875D01*
X014225Y008675D02*
X014325Y008675D01*
X014075Y006425D02*
X013975Y006425D01*
X014075Y005625D02*
X013975Y005625D01*
X010725Y006125D02*
X010825Y006125D01*
X010725Y006925D02*
X010825Y006925D01*
X014225Y002125D02*
X014325Y002125D01*
X014225Y002925D02*
X014325Y002925D01*
D36*
X000025Y000025D02*
X019775Y000025D01*
X019775Y013025D01*
X000025Y013025D01*
X000025Y000025D01*
D41*
X000525Y003525D03*
X001525Y003525D03*
X002525Y003525D03*
X003525Y003525D03*
X004525Y003525D03*
X005525Y003525D03*
X006525Y003525D03*
X007525Y003525D03*
X008525Y003525D03*
X009525Y003525D03*
X010525Y003525D03*
X011525Y003525D03*
X000525Y009525D03*
X001525Y009525D03*
X002525Y009525D03*
X003525Y009525D03*
X004525Y009525D03*
X005525Y009525D03*
X006525Y009525D03*
X007525Y009525D03*
X008525Y009525D03*
X009525Y009525D03*
X010525Y009525D03*
X011525Y009525D03*
D53*
D73*
X012025Y001525D02*
X002025Y001525D01*
X000945Y002605D01*
X000945Y003105D01*
X000525Y003525D01*
X000525Y004185D01*
X001525Y005185D01*
X001525Y006525D01*
X018775Y004930D02*
X017025Y004930D01*
X017025Y004930D02*
X016469Y004930D01*
X016469Y004930D02*
X016125Y005275D01*
X015525Y005275D01*
X017025Y003119D02*
X016380Y003119D01*
X016380Y003119D02*
X016225Y003275D01*
X015525Y003275D01*
X013025Y005075D02*
X013245Y005295D01*
X013645Y005295D01*
X013975Y005625D01*
X014025Y005625D01*
X012705Y004485D02*
X011685Y004485D01*
X010645Y005525D01*
X008025Y005525D01*
X012705Y004485D02*
X012705Y004755D01*
X013025Y005075D01*
X012025Y001525D02*
X014055Y003555D01*
X014055Y003805D01*
X015525Y005275D01*
X012025Y005025D02*
X011475Y005575D01*
X011375Y005575D01*
X010825Y006125D01*
X012025Y005025D02*
X012725Y005725D01*
X013275Y005725D01*
X013975Y006425D01*
X015525Y005275D02*
X015525Y007275D01*
X015525Y001275D02*
X018135Y001275D01*
X018795Y001935D01*
X018775Y001955D01*
X018775Y003119D01*
X002025Y011525D02*
X003414Y011525D01*
X003414Y011525D02*
X003565Y011675D01*
X003565Y011815D01*
X004025Y012275D01*
X001525Y006525D02*
X001525Y008255D01*
X001015Y008765D01*
X001015Y010515D01*
X002025Y011525D01*
X010825Y006125D02*
X011320Y006620D01*
X011320Y006950D01*
X011845Y007475D01*
X012265Y007475D01*
X012335Y007545D01*
X010825Y006125D02*
X010775Y006125D01*
X010025Y011275D02*
X010425Y011275D01*
X010675Y011525D01*
X012025Y011525D01*
X010775Y006925D02*
X009965Y006925D01*
X009865Y007025D01*
X009025Y007025D01*
X010775Y006925D02*
X010825Y006925D01*
X011375Y007475D01*
X011475Y007475D01*
X012025Y008025D01*
X010775Y006125D02*
X009965Y006125D01*
X009565Y006525D01*
X008025Y006525D01*
X009025Y007025D02*
X008525Y007525D01*
X008025Y007525D01*
X018493Y011743D02*
X014556Y011743D01*
X013975Y006425D02*
X012855Y007545D01*
X012335Y007545D01*
X014925Y007275D02*
X014325Y007875D01*
X014275Y007875D01*
X013975Y006425D02*
X014025Y006425D01*
X014075Y006425D01*
X014925Y007275D01*
X014275Y008675D02*
X013635Y008675D01*
X013605Y008705D01*
X013065Y008705D01*
X012025Y011525D02*
X013585Y011525D01*
X013803Y011743D01*
X013803Y011743D02*
X014556Y011743D01*
X015525Y009275D02*
X016495Y010245D01*
X016495Y010434D01*
X017312Y011251D01*
X014925Y007275D02*
X015525Y007275D01*
X015525Y008255D01*
X014556Y009223D01*
X014556Y009223D02*
X014556Y011743D01*
D82*
X009025Y008025D03*
D83*
X009025Y007025D03*
X009025Y006025D03*
X009025Y005025D03*
X012025Y005025D03*
X012025Y006025D03*
X012025Y007025D03*
X012025Y008025D03*
X004025Y011275D03*
X004025Y012275D03*
X005025Y011275D03*
X005025Y012275D03*
X006025Y011275D03*
X006025Y012275D03*
X007025Y011275D03*
X007025Y012275D03*
X008025Y011275D03*
X008025Y012275D03*
X009025Y011275D03*
X009025Y012275D03*
X010025Y011275D03*
X010025Y012275D03*
D86*
X013025Y005075D03*
X013065Y008705D03*
D96*
X008025Y005525D03*
X008025Y006525D03*
X008025Y007525D03*
D97*
X001525Y006525D03*
D98*
X015525Y001275D03*
X015525Y003275D03*
X015525Y005275D03*
X015525Y007275D03*
X015525Y009275D03*
X014556Y011743D03*
X018493Y011743D03*
D99*
X015737Y012236D03*
X016525Y012236D03*
X017312Y012236D03*
X015737Y011251D03*
X016525Y011251D03*
X017312Y011251D03*
D102*
X017025Y003080D02*
X017025Y003158D01*
X017025Y004891D02*
X017025Y004969D01*
X018775Y003080D02*
X018775Y003158D01*
X018775Y004891D02*
X018775Y004969D01*
D103*
X002025Y001525D03*
X012025Y001525D03*
X012025Y011525D03*
X002025Y011525D03*
X000000Y000000D02*
M02*
