G70*
%FSLAX24Y24*%
%IPPOS*%
%LPD*%
%ADD16C,0.052*%
%ADD36C,0.005*%
%ADD50C,0.069*%
%ADD51R,0.044X0.044*%
%ADD52C,0.072*%
%ADD53C,0.001*%
%ADD65R,0.032X0.032*%
%ADD87R,0.062X0.062*%
%ADD88C,0.062*%
%ADD106C,0.204*%
%ADD107C,0.094*%
%ADD108C,0.084*%
%ADD109C,0.274*%
%ADD110R,0.08274X0.08274*%
D16*
X015737Y012236D03*
X016525Y012236D03*
X017312Y012236D03*
X015737Y011251D03*
X016525Y011251D03*
X017312Y011251D03*
D36*
X000250Y008500D02*
X007000Y008500D01*
X007000Y004550D01*
X000250Y004550D01*
X000250Y008500D01*
X000275Y008450D02*
X006975Y008450D01*
X000275Y008400D02*
X006975Y008400D01*
X000275Y008350D02*
X006975Y008350D01*
X000275Y008300D02*
X006975Y008300D01*
X000275Y008250D02*
X006975Y008250D01*
X000275Y008200D02*
X006975Y008200D01*
X000275Y008150D02*
X006975Y008150D01*
X000275Y008100D02*
X006975Y008100D01*
X000275Y008050D02*
X006975Y008050D01*
X000275Y008000D02*
X006975Y008000D01*
X000275Y007950D02*
X006975Y007950D01*
X000275Y007900D02*
X006975Y007900D01*
X000275Y007850D02*
X006975Y007850D01*
X000275Y007800D02*
X006975Y007800D01*
X000275Y007750D02*
X006975Y007750D01*
X000275Y007700D02*
X006975Y007700D01*
X000275Y007650D02*
X006975Y007650D01*
X000275Y007600D02*
X006975Y007600D01*
X000275Y007550D02*
X006975Y007550D01*
X000275Y007500D02*
X006975Y007500D01*
X000275Y007450D02*
X006975Y007450D01*
X000275Y007400D02*
X006975Y007400D01*
X000275Y007350D02*
X006975Y007350D01*
X000275Y007300D02*
X006975Y007300D01*
X000275Y007250D02*
X006975Y007250D01*
X000275Y007200D02*
X006975Y007200D01*
X000275Y007150D02*
X006975Y007150D01*
X000275Y007100D02*
X006975Y007100D01*
X000275Y007050D02*
X006975Y007050D01*
X000275Y007000D02*
X006975Y007000D01*
X000275Y006950D02*
X006975Y006950D01*
X000275Y006900D02*
X006975Y006900D01*
X000275Y006850D02*
X006975Y006850D01*
X000275Y006800D02*
X006975Y006800D01*
X000275Y006750D02*
X006975Y006750D01*
X000275Y006700D02*
X006975Y006700D01*
X000275Y006650D02*
X006975Y006650D01*
X000275Y006600D02*
X006975Y006600D01*
X000275Y006550D02*
X006975Y006550D01*
X000275Y006500D02*
X006975Y006500D01*
X000275Y006450D02*
X006975Y006450D01*
X000275Y006400D02*
X006975Y006400D01*
X000275Y006350D02*
X006975Y006350D01*
X000275Y006300D02*
X006975Y006300D01*
X000275Y006250D02*
X006975Y006250D01*
X000275Y006200D02*
X006975Y006200D01*
X000275Y006150D02*
X006975Y006150D01*
X000275Y006100D02*
X006975Y006100D01*
X000275Y006050D02*
X006975Y006050D01*
X000275Y006000D02*
X006975Y006000D01*
X000275Y005950D02*
X006975Y005950D01*
X000275Y005900D02*
X006975Y005900D01*
X000275Y005850D02*
X006975Y005850D01*
X000275Y005800D02*
X006975Y005800D01*
X000275Y005750D02*
X006975Y005750D01*
X000275Y005700D02*
X006975Y005700D01*
X000275Y005650D02*
X006975Y005650D01*
X000275Y005600D02*
X006975Y005600D01*
X000275Y005550D02*
X006975Y005550D01*
X000275Y005500D02*
X006975Y005500D01*
X000275Y005450D02*
X006975Y005450D01*
X000275Y005400D02*
X006975Y005400D01*
X000275Y005350D02*
X006975Y005350D01*
X000275Y005300D02*
X006975Y005300D01*
X000275Y005250D02*
X006975Y005250D01*
X000275Y005200D02*
X006975Y005200D01*
X000275Y005150D02*
X006975Y005150D01*
X000275Y005100D02*
X006975Y005100D01*
X000275Y005050D02*
X006975Y005050D01*
X000275Y005000D02*
X006975Y005000D01*
X000275Y004950D02*
X006975Y004950D01*
X000275Y004900D02*
X006975Y004900D01*
X000275Y004850D02*
X006975Y004850D01*
X000275Y004800D02*
X006975Y004800D01*
X000275Y004750D02*
X006975Y004750D01*
X000275Y004700D02*
X006975Y004700D01*
X000275Y004650D02*
X006975Y004650D01*
X000275Y004600D02*
X006975Y004600D01*
X000300Y004575D02*
X000300Y008475D01*
X000350Y004575D02*
X000350Y008475D01*
X000400Y004575D02*
X000400Y008475D01*
X000450Y004575D02*
X000450Y008475D01*
X000500Y004575D02*
X000500Y008475D01*
X000550Y004575D02*
X000550Y008475D01*
X000600Y004575D02*
X000600Y008475D01*
X000650Y004575D02*
X000650Y008475D01*
X000700Y004575D02*
X000700Y008475D01*
X000750Y004575D02*
X000750Y008475D01*
X000800Y004575D02*
X000800Y008475D01*
X000850Y004575D02*
X000850Y008475D01*
X000900Y004575D02*
X000900Y008475D01*
X000950Y004575D02*
X000950Y008475D01*
X001000Y004575D02*
X001000Y008475D01*
X001050Y004575D02*
X001050Y008475D01*
X001100Y004575D02*
X001100Y008475D01*
X001150Y004575D02*
X001150Y008475D01*
X001200Y004575D02*
X001200Y008475D01*
X001250Y004575D02*
X001250Y008475D01*
X001300Y004575D02*
X001300Y008475D01*
X001350Y004575D02*
X001350Y008475D01*
X001400Y004575D02*
X001400Y008475D01*
X001450Y004575D02*
X001450Y008475D01*
X001500Y004575D02*
X001500Y008475D01*
X001550Y004575D02*
X001550Y008475D01*
X001600Y004575D02*
X001600Y008475D01*
X001650Y004575D02*
X001650Y008475D01*
X001700Y004575D02*
X001700Y008475D01*
X001750Y004575D02*
X001750Y008475D01*
X001800Y004575D02*
X001800Y008475D01*
X001850Y004575D02*
X001850Y008475D01*
X001900Y004575D02*
X001900Y008475D01*
X001950Y004575D02*
X001950Y008475D01*
X002000Y004575D02*
X002000Y008475D01*
X002050Y004575D02*
X002050Y008475D01*
X002100Y004575D02*
X002100Y008475D01*
X002150Y004575D02*
X002150Y008475D01*
X002200Y004575D02*
X002200Y008475D01*
X002250Y004575D02*
X002250Y008475D01*
X002300Y004575D02*
X002300Y008475D01*
X002350Y004575D02*
X002350Y008475D01*
X002400Y004575D02*
X002400Y008475D01*
X002450Y004575D02*
X002450Y008475D01*
X002500Y004575D02*
X002500Y008475D01*
X002550Y004575D02*
X002550Y008475D01*
X002600Y004575D02*
X002600Y008475D01*
X002650Y004575D02*
X002650Y008475D01*
X002700Y004575D02*
X002700Y008475D01*
X002750Y004575D02*
X002750Y008475D01*
X002800Y004575D02*
X002800Y008475D01*
X002850Y004575D02*
X002850Y008475D01*
X002900Y004575D02*
X002900Y008475D01*
X002950Y004575D02*
X002950Y008475D01*
X003000Y004575D02*
X003000Y008475D01*
X003050Y004575D02*
X003050Y008475D01*
X003100Y004575D02*
X003100Y008475D01*
X003150Y004575D02*
X003150Y008475D01*
X003200Y004575D02*
X003200Y008475D01*
X003250Y004575D02*
X003250Y008475D01*
X003300Y004575D02*
X003300Y008475D01*
X003350Y004575D02*
X003350Y008475D01*
X003400Y004575D02*
X003400Y008475D01*
X003450Y004575D02*
X003450Y008475D01*
X003500Y004575D02*
X003500Y008475D01*
X003550Y004575D02*
X003550Y008475D01*
X003600Y004575D02*
X003600Y008475D01*
X003650Y004575D02*
X003650Y008475D01*
X003700Y004575D02*
X003700Y008475D01*
X003750Y004575D02*
X003750Y008475D01*
X003800Y004575D02*
X003800Y008475D01*
X003850Y004575D02*
X003850Y008475D01*
X003900Y004575D02*
X003900Y008475D01*
X003950Y004575D02*
X003950Y008475D01*
X004000Y004575D02*
X004000Y008475D01*
X004050Y004575D02*
X004050Y008475D01*
X004100Y004575D02*
X004100Y008475D01*
X004150Y004575D02*
X004150Y008475D01*
X004200Y004575D02*
X004200Y008475D01*
X004250Y004575D02*
X004250Y008475D01*
X004300Y004575D02*
X004300Y008475D01*
X004350Y004575D02*
X004350Y008475D01*
X004400Y004575D02*
X004400Y008475D01*
X004450Y004575D02*
X004450Y008475D01*
X004500Y004575D02*
X004500Y008475D01*
X004550Y004575D02*
X004550Y008475D01*
X004600Y004575D02*
X004600Y008475D01*
X004650Y004575D02*
X004650Y008475D01*
X004700Y004575D02*
X004700Y008475D01*
X004750Y004575D02*
X004750Y008475D01*
X004800Y004575D02*
X004800Y008475D01*
X004850Y004575D02*
X004850Y008475D01*
X004900Y004575D02*
X004900Y008475D01*
X004950Y004575D02*
X004950Y008475D01*
X005000Y004575D02*
X005000Y008475D01*
X005050Y004575D02*
X005050Y008475D01*
X005100Y004575D02*
X005100Y008475D01*
X005150Y004575D02*
X005150Y008475D01*
X005200Y004575D02*
X005200Y008475D01*
X005250Y004575D02*
X005250Y008475D01*
X005300Y004575D02*
X005300Y008475D01*
X005350Y004575D02*
X005350Y008475D01*
X005400Y004575D02*
X005400Y008475D01*
X005450Y004575D02*
X005450Y008475D01*
X005500Y004575D02*
X005500Y008475D01*
X005550Y004575D02*
X005550Y008475D01*
X005600Y004575D02*
X005600Y008475D01*
X005650Y004575D02*
X005650Y008475D01*
X005700Y004575D02*
X005700Y008475D01*
X005750Y004575D02*
X005750Y008475D01*
X005800Y004575D02*
X005800Y008475D01*
X005850Y004575D02*
X005850Y008475D01*
X005900Y004575D02*
X005900Y008475D01*
X005950Y004575D02*
X005950Y008475D01*
X006000Y004575D02*
X006000Y008475D01*
X006050Y004575D02*
X006050Y008475D01*
X006100Y004575D02*
X006100Y008475D01*
X006150Y004575D02*
X006150Y008475D01*
X006200Y004575D02*
X006200Y008475D01*
X006250Y004575D02*
X006250Y008475D01*
X006300Y004575D02*
X006300Y008475D01*
X006350Y004575D02*
X006350Y008475D01*
X006400Y004575D02*
X006400Y008475D01*
X006450Y004575D02*
X006450Y008475D01*
X006500Y004575D02*
X006500Y008475D01*
X006550Y004575D02*
X006550Y008475D01*
X006600Y004575D02*
X006600Y008475D01*
X006650Y004575D02*
X006650Y008475D01*
X006700Y004575D02*
X006700Y008475D01*
X006750Y004575D02*
X006750Y008475D01*
X006800Y004575D02*
X006800Y008475D01*
X006850Y004575D02*
X006850Y008475D01*
X006900Y004575D02*
X006900Y008475D01*
X006950Y004575D02*
X006950Y008475D01*
X000025Y000025D02*
X019775Y000025D01*
X019775Y013025D01*
X000025Y013025D01*
X000025Y000025D01*
D50*
X000525Y003525D03*
X001525Y003525D03*
X002525Y003525D03*
X003525Y003525D03*
X004525Y003525D03*
X005525Y003525D03*
X006525Y003525D03*
X007525Y003525D03*
X008525Y003525D03*
X009525Y003525D03*
X010525Y003525D03*
X011525Y003525D03*
X000525Y009525D03*
X001525Y009525D03*
X002525Y009525D03*
X003525Y009525D03*
X004525Y009525D03*
X005525Y009525D03*
X006525Y009525D03*
X007525Y009525D03*
X008525Y009525D03*
X009525Y009525D03*
X010525Y009525D03*
X011525Y009525D03*
D51*
X004375Y002225D02*
X004375Y002325D01*
X005175Y002225D02*
X005175Y002325D01*
X013075Y005625D02*
X012975Y005625D01*
X013075Y006425D02*
X012975Y006425D01*
D52*
X008025Y005525D03*
X008025Y006525D03*
X008025Y007525D03*
D53*
D65*
X006285Y001725D02*
X006265Y001725D01*
X006285Y002325D02*
X006265Y002325D01*
X007035Y001725D02*
X007015Y001725D01*
X007035Y002325D02*
X007015Y002325D01*
X007785Y001725D02*
X007765Y001725D01*
X007785Y002325D02*
X007765Y002325D01*
X008535Y001725D02*
X008515Y001725D01*
X008535Y002325D02*
X008515Y002325D01*
X003725Y000515D02*
X003725Y000535D01*
X004325Y000515D02*
X004325Y000535D01*
X005225Y000515D02*
X005225Y000535D01*
X005825Y000515D02*
X005825Y000535D01*
X006725Y000515D02*
X006725Y000535D01*
X007325Y000515D02*
X007325Y000535D01*
X008225Y000515D02*
X008225Y000535D01*
X008825Y000515D02*
X008825Y000535D01*
X009285Y001725D02*
X009265Y001725D01*
X009285Y002325D02*
X009265Y002325D01*
X010035Y001725D02*
X010015Y001725D01*
X010035Y002325D02*
X010015Y002325D01*
X009725Y000515D02*
X009725Y000535D01*
X010325Y000515D02*
X010325Y000535D01*
D87*
X009025Y008025D03*
D88*
X009025Y007025D03*
X009025Y006025D03*
X009025Y005025D03*
X012025Y005025D03*
X012025Y006025D03*
X012025Y007025D03*
X012025Y008025D03*
X004025Y011275D03*
X004025Y012275D03*
X005025Y011275D03*
X005025Y012275D03*
X006025Y011275D03*
X006025Y012275D03*
X007025Y011275D03*
X007025Y012275D03*
X008025Y011275D03*
X008025Y012275D03*
X009025Y011275D03*
X009025Y012275D03*
X010025Y011275D03*
X010025Y012275D03*
D106*
X001525Y006525D03*
D107*
X015525Y001275D03*
X015525Y003275D03*
X015525Y005275D03*
X015525Y007275D03*
X015525Y009275D03*
D108*
X014556Y011743D03*
X018493Y011743D03*
D109*
X002025Y001525D03*
X012025Y001525D03*
X012025Y011525D03*
X002025Y011525D03*
D110*
X013025Y007580D02*
X013025Y007658D01*
X013025Y009391D02*
X013025Y009469D01*
X000000Y000000D02*
M02*
