%
M48
M72
T01C0.013
T02C0.029
T03C0.035
T04C0.038
T05C0.040
T06C0.046
T07C0.125
%
T01
X013025Y005075
X013065Y008705
T02
X015738Y011252
X016525Y011252
X017312Y011252
X015738Y012236
X016525Y012236
X017312Y012236
T03
X009025Y005025
X009025Y006025
X009025Y007025
X009025Y008025
X012025Y008025
X012025Y007025
X012025Y006025
X012025Y005025
T04
X000525Y003525
X001525Y003525
X002525Y003525
X000525Y009525
X001525Y009525
X002525Y009525
X003525Y009525
X004525Y009525
X005525Y009525
X006525Y009525
X007525Y009525
X007525Y003525
X005525Y003525
X003525Y003525
X004525Y003525
X006525Y003525
X009525Y003525
X008525Y003525
X010525Y003525
X011525Y003525
X008525Y009525
X009525Y009525
X010525Y009525
X011525Y009525
T05
X004025Y011275
X005025Y011275
X004025Y012275
X005025Y012275
X006025Y012275
X007025Y012275
X008025Y012275
X009025Y012275
X010025Y012275
X008025Y011275
X007025Y011275
X009025Y011275
X006025Y011275
X010025Y011275
X008025Y007525
X008025Y006525
X008025Y005525
T06
X014556Y011744
X015525Y009275
X015525Y007275
X015525Y005275
X015525Y003275
X015525Y001275
X018494Y011744
T07
X002025Y001525
X001525Y006525
X002025Y011525
X012025Y011525
X012025Y001525
M30
