G70*
%FSLAX24Y24*%
%IPPOS*%
%LPD*%
%ADD10C,0.008*%
%ADD25C,0.01*%
%ADD36C,0.005*%
%ADD53C,0.001*%
%ADD104C,0.01969*%
D10*
X014645Y008275D02*
X014645Y008995D01*
X013905Y008995D01*
X013905Y007555D01*
X014645Y007555D01*
X014645Y008275D01*
X013655Y006025D02*
X013655Y005305D01*
X014395Y005305D01*
X014395Y006745D01*
X013655Y006745D01*
X013655Y006025D01*
X011145Y006525D02*
X011145Y007245D01*
X010405Y007245D01*
X010405Y005805D01*
X011145Y005805D01*
X011145Y006525D01*
X014645Y002525D02*
X014645Y003245D01*
X013905Y003245D01*
X013905Y001805D01*
X014645Y001805D01*
X014645Y002525D01*
D25*
X017615Y002525D02*
X017615Y005525D01*
X017615Y005525D02*
X016434Y005525D01*
X016434Y002525D01*
X017615Y002525D01*
X019365Y002525D02*
X019365Y005525D01*
X019365Y005525D02*
X018184Y005525D01*
X018184Y002525D01*
X019365Y002525D01*
D36*
X000025Y000025D02*
X019775Y000025D01*
X019775Y013025D01*
X000025Y013025D01*
X000025Y000025D01*
D53*
D104*
X017544Y003775D02*
X016505Y003775D01*
X019294Y003775D02*
X018255Y003775D01*
X000000Y000000D02*
M02*
